<svg width="778" height="877" viewBox="0 0 778 877" fill="none" xmlns="http://www.w3.org/2000/svg">
<g filter="url(#filter0_dii_1_100)">
<path d="M127.717 143.6C127.717 112.341 153.057 87 184.316 87H460.712C491.971 87 517.312 112.341 517.312 143.6V261.28C517.312 262.713 518.473 263.874 519.906 263.874V263.874C521.339 263.874 522.5 265.036 522.5 266.468V335.803C522.5 337.236 521.339 338.397 519.906 338.397V338.397C518.473 338.397 517.312 339.559 517.312 340.991V830.344C517.312 861.603 491.971 886.943 460.712 886.943H184.316C153.057 886.943 127.717 861.603 127.717 830.344V374.244C127.717 372.941 126.661 371.885 125.358 371.885V371.885C124.056 371.885 123 370.83 123 369.527V311.041C123 309.738 124.056 308.682 125.358 308.682V308.682C126.661 308.682 127.717 307.627 127.717 306.324V299.249C127.717 297.947 126.661 296.891 125.358 296.891V296.891C124.056 296.891 123 295.835 123 294.532V234.159C123 232.857 124.056 231.801 125.358 231.801V231.801C126.661 231.801 127.717 230.745 127.717 229.443V143.6Z" fill="white"/>
<path d="M184.316 87.4717H460.712C491.711 87.4717 516.84 112.601 516.84 143.6V261.28C516.84 262.973 518.213 264.346 519.906 264.346C521.078 264.346 522.028 265.296 522.028 266.468V335.803C522.028 336.975 521.078 337.926 519.906 337.926C518.213 337.926 516.84 339.298 516.84 340.991V830.344C516.84 861.342 491.711 886.472 460.712 886.472H184.316C153.318 886.472 128.188 861.342 128.188 830.344V374.244C128.188 372.681 126.921 371.414 125.358 371.414C124.316 371.414 123.472 370.569 123.472 369.527V311.041C123.472 309.999 124.316 309.154 125.358 309.154C126.921 309.154 128.188 307.887 128.188 306.324V299.249C128.188 297.686 126.921 296.419 125.358 296.419C124.316 296.419 123.472 295.574 123.472 294.532V234.159C123.472 233.117 124.316 232.273 125.358 232.273C126.921 232.273 128.188 231.006 128.188 229.443V143.6C128.188 112.601 153.318 87.4717 184.316 87.4717Z" stroke="#EEEEEE" stroke-width="0.943329"/>
</g>
<path d="M180.52 116.715H222.053V120.809C222.053 131.155 230.441 139.543 240.788 139.543H405.154C415.5 139.543 423.888 131.155 423.888 120.809V116.715H464.508C480.385 116.715 493.257 129.586 493.257 145.463V828.48C493.257 844.357 480.385 857.228 464.508 857.228H180.52C164.643 857.228 151.772 844.357 151.772 828.48V145.463C151.772 129.586 164.643 116.715 180.52 116.715Z" fill="#FEFEFE" stroke="#E6E6E6" stroke-width="0.943329"/>
<rect opacity="0.4" x="286.196" y="118.13" width="81.1263" height="7.54664" rx="3.77332" fill="#333333"/>
<rect opacity="0.5" x="380.529" y="113.413" width="16.9799" height="16.9799" rx="8.48996" fill="#313131"/>
<rect opacity="0.5" x="384.302" y="117.187" width="9.43329" height="9.43329" rx="4.71665" fill="white"/>
<rect opacity="0.5" x="240.916" y="118.13" width="7.54664" height="7.54664" rx="3.77332" fill="#333333"/>
<defs>
<filter id="filter0_dii_1_100" x="0.367165" y="-7.33295" width="776.832" height="1177.28" filterUnits="userSpaceOnUse" color-interpolation-filters="sRGB">
<feFlood flood-opacity="0" result="BackgroundImageFix"/>
<feColorMatrix in="SourceAlpha" type="matrix" values="0 0 0 0 0 0 0 0 0 0 0 0 0 0 0 0 0 0 127 0" result="hardAlpha"/>
<feOffset dx="66.0331" dy="94.3329"/>
<feGaussianBlur stdDeviation="94.3329"/>
<feColorMatrix type="matrix" values="0 0 0 0 0 0 0 0 0 0 0 0 0 0 0 0 0 0 0.17 0"/>
<feBlend mode="normal" in2="BackgroundImageFix" result="effect1_dropShadow_1_100"/>
<feBlend mode="normal" in="SourceGraphic" in2="effect1_dropShadow_1_100" result="shape"/>
<feColorMatrix in="SourceAlpha" type="matrix" values="0 0 0 0 0 0 0 0 0 0 0 0 0 0 0 0 0 0 127 0" result="hardAlpha"/>
<feOffset dx="9.43329" dy="18.8666"/>
<feGaussianBlur stdDeviation="14.1499"/>
<feComposite in2="hardAlpha" operator="arithmetic" k2="-1" k3="1"/>
<feColorMatrix type="matrix" values="0 0 0 0 0 0 0 0 0 0 0 0 0 0 0 0 0 0 0.1 0"/>
<feBlend mode="normal" in2="shape" result="effect2_innerShadow_1_100"/>
<feColorMatrix in="SourceAlpha" type="matrix" values="0 0 0 0 0 0 0 0 0 0 0 0 0 0 0 0 0 0 127 0" result="hardAlpha"/>
<feOffset dx="-9.43329" dy="-18.8666"/>
<feGaussianBlur stdDeviation="14.1499"/>
<feComposite in2="hardAlpha" operator="arithmetic" k2="-1" k3="1"/>
<feColorMatrix type="matrix" values="0 0 0 0 0 0 0 0 0 0 0 0 0 0 0 0 0 0 0.1 0"/>
<feBlend mode="normal" in2="effect2_innerShadow_1_100" result="effect3_innerShadow_1_100"/>
</filter>
</defs>
</svg>
