<svg width="51" height="33" viewBox="0 0 51 33" fill="none" xmlns="http://www.w3.org/2000/svg">
<path fill-rule="evenodd" clip-rule="evenodd" d="M15.8074 16.3806C15.8943 16.5899 16.0654 16.7512 16.2762 16.8229L24.8687 19.7418C24.9763 19.7784 25.0888 19.7898 25.1983 19.7767C25.3024 19.7643 25.4038 19.7299 25.4956 19.6742L32.9565 15.1462C33.1561 15.025 33.2891 14.8163 33.3175 14.5799C33.3458 14.3435 33.2664 14.1054 33.102 13.9339L22.9306 3.32932C22.7569 3.1483 22.5097 3.06299 22.266 3.10093C22.0228 3.13874 21.814 3.29477 21.7056 3.51965L15.8237 15.7332C15.7265 15.9351 15.7205 16.1714 15.8074 16.3806Z" fill="#FFCC02"/>
<path fill-rule="evenodd" clip-rule="evenodd" d="M25.6776 22.0341C25.638 21.7407 25.4395 21.4934 25.1653 21.3956L2.51149 13.3228C2.19731 13.2108 1.85085 13.3184 1.65461 13.5891C1.45852 13.8597 1.45773 14.2311 1.6527 14.5078L12.8597 30.409C13.0291 30.6494 13.3065 30.7648 13.5744 30.7329C13.6895 30.7192 13.8029 30.6782 13.9052 30.6083L25.3521 22.7798C25.5911 22.6163 25.7171 22.3275 25.6776 22.0341Z" fill="#EFAE07"/>
<path fill-rule="evenodd" clip-rule="evenodd" d="M47.1153 7.97078C46.8585 7.75097 46.4944 7.72476 46.2155 7.90602L13.2674 29.3117C12.9692 29.5055 12.844 29.8852 12.9657 30.2282C13.0874 30.5712 13.4234 30.7844 13.776 30.7442L39.392 27.8165L39.3957 27.816C39.6687 27.7835 39.9019 27.6052 40.005 27.3453L47.3371 8.86696C47.4616 8.55325 47.3718 8.19053 47.1153 7.97078Z" fill="#FFCC02"/>
</svg>
